HIERARCHY
ROOT Hips
{
	OFFSET 0.000000 0.000000 0.000000
	CHANNELS 6 Xposition Yposition Zposition Zrotation Yrotation Xrotation 
	JOINT LHipJoint
	{
		OFFSET 0.000000 0.000000 0.000000
		CHANNELS 3 Zrotation Yrotation Xrotation
		JOINT LeftUpLeg
		{
			OFFSET 1.363060 -1.794630 0.839290
			CHANNELS 3 Zrotation Yrotation Xrotation
			JOINT LeftLeg
			{
				OFFSET 2.448110 -6.726130 0.000000
				CHANNELS 3 Zrotation Yrotation Xrotation
				JOINT LeftFoot
				{
					OFFSET 2.562200 -7.039590 0.000000
					CHANNELS 3 Zrotation Yrotation Xrotation
					JOINT LeftToeBase
					{
						OFFSET 0.157640 -0.433110 2.322550
						CHANNELS 3 Zrotation Yrotation Xrotation
						End Site
						{
							OFFSET 0.000000 0.000000 0.000000
						}
					}
				}
			}
		}
	}
	JOINT RHipJoint
	{
		OFFSET 0.000000 0.000000 0.000000
		CHANNELS 3 Zrotation Yrotation Xrotation
		JOINT RightUpLeg
		{
			OFFSET -1.305520 -1.794630 0.839290
			CHANNELS 3 Zrotation Yrotation Xrotation
			JOINT RightLeg
			{
				OFFSET -2.542530 -6.985550 0.000000
				CHANNELS 3 Zrotation Yrotation Xrotation
				JOINT RightFoot
				{
					OFFSET -2.568260 -7.056230 0.000000
					CHANNELS 3 Zrotation Yrotation Xrotation
					JOINT RightToeBase
					{
						OFFSET -0.164730 -0.452590 2.363150
						CHANNELS 3 Zrotation Yrotation Xrotation
						End Site
						{
							OFFSET 0.000000 0.000000 0.000000
						}
					}
				}
			}
		}
	}
	JOINT LowerBack
	{
		OFFSET 0.000000 0.000000 0.000000
		CHANNELS 3 Zrotation Yrotation Xrotation
		JOINT Spine
		{
			OFFSET 0.028270 2.035590 -0.193380
			CHANNELS 3 Zrotation Yrotation Xrotation
			JOINT Spine1
			{
				OFFSET 0.056720 2.048850 -0.042750
				CHANNELS 3 Zrotation Yrotation Xrotation
				JOINT Neck
				{
					OFFSET 0.000000 0.000000 0.000000
					CHANNELS 3 Zrotation Yrotation Xrotation
					JOINT Neck1
					{
						OFFSET -0.054170 1.746240 0.172020
						CHANNELS 3 Zrotation Yrotation Xrotation
						JOINT Head
						{
							OFFSET 0.104070 1.761360 -0.123970
							CHANNELS 3 Zrotation Yrotation Xrotation
							End Site
							{
								OFFSET 0.000000 0.000000 0.000000
							}
						}
					}
				}
				JOINT LeftShoulder
				{
					OFFSET 0.000000 0.000000 0.000000
					CHANNELS 3 Zrotation Yrotation Xrotation
					JOINT LeftArm
					{
						OFFSET 3.362410 1.200890 -0.311210
						CHANNELS 3 Zrotation Yrotation Xrotation
						JOINT LeftForeArm
						{
							OFFSET 4.983000 -0.000000 -0.000000
							CHANNELS 3 Zrotation Yrotation Xrotation
							JOINT LeftHand
							{
								OFFSET 3.483560 -0.000000 -0.000000
								CHANNELS 3 Zrotation Yrotation Xrotation
								JOINT LeftFingerBase
								{
									OFFSET 0.000000 0.000000 0.000000
									CHANNELS 3 Zrotation Yrotation Xrotation
									JOINT LeftHandIndex1
									{
										OFFSET 0.715260 -0.000000 -0.000000
										CHANNELS 3 Zrotation Yrotation Xrotation
										End Site
										{
											OFFSET 0.000000 0.000000 0.000000
										}
									}
								}
								JOINT LThumb
								{
									OFFSET 0.000000 0.000000 0.000000
									CHANNELS 3 Zrotation Yrotation Xrotation
									End Site
									{
										OFFSET 0.000000 0.000000 0.000000
									}
								}
							}
						}
					}
				}
				JOINT RightShoulder
				{
					OFFSET 0.000000 0.000000 0.000000
					CHANNELS 3 Zrotation Yrotation Xrotation
					JOINT RightArm
					{
						OFFSET -3.136600 1.374050 -0.404650
						CHANNELS 3 Zrotation Yrotation Xrotation
						JOINT RightForeArm
						{
							OFFSET -5.241900 -0.000000 -0.000000
							CHANNELS 3 Zrotation Yrotation Xrotation
							JOINT RightHand
							{
								OFFSET -3.444170 -0.000000 -0.000000
								CHANNELS 3 Zrotation Yrotation Xrotation
								JOINT RightFingerBase
								{
									OFFSET 0.000000 0.000000 0.000000
									CHANNELS 3 Zrotation Yrotation Xrotation
									JOINT RightHandIndex1
									{
										OFFSET -0.622530 -0.000000 -0.000000
										CHANNELS 3 Zrotation Yrotation Xrotation
										End Site
										{
											OFFSET 0.000000 0.000000 0.000000
										}
									}
								}
								JOINT RThumb
								{
									OFFSET 0.000000 0.000000 0.000000
									CHANNELS 3 Zrotation Yrotation Xrotation
									End Site
									{
										OFFSET 0.000000 0.000000 0.000000
									}
								}
							}
						}
					}
				}
			}
		}
	}
}
MOTION
Frames: 12
Frame Time: 0.008333
9.768592 17.129895 32.939171 90.488722 -89.943011 -68.488501 7.292345 3.096455 -2.949843 2.155254 -9.198175 -11.072802 -4.755817 0.806785 -0.120004 -5.608539 24.599554 29.660761 1.193600 -6.932500 -19.515600 -8.097777 -0.565445 -3.134760 -3.955060 39.033905 -3.887382 2.511156 -7.056788 13.714381 19.543921 -39.298908 -8.100357 -0.340200 3.747900 -10.368500 -2.103732 0.591922 -11.860977 0.381102 0.718099 -5.381030 1.252413 0.224967 5.609401 0.434398 1.593229 -23.222969 6.681454 1.408885 10.876835 0.579000 1.301800 15.285100 -8.157373 -3.112698 -0.234771 5.516201 6.195078 -43.628547 3.887106 -4.644040 -3.248477 -9.430567 -0.988068 -8.533210 17.801370 -1.928291 -1.186400 -7.125000 0.000000 0.000000 0.528100 27.390000 -0.225900 12.357724 4.868860 1.107053 -9.230324 -9.849939 -52.454091 -4.481321 3.611767 -2.575943 8.530973 4.554143 16.658835 -15.597616 -13.789820 8.133400 7.125000 0.000000 0.000000 6.064000 -51.578800 -0.985500 
9.748639 17.127211 32.935321 29.260094 -89.002821 -7.320166 6.941624 2.551687 -3.255459 2.295570 -9.373803 -10.886273 -4.740686 0.739936 -0.079065 -5.752573 24.764128 29.675182 1.308800 -7.247000 -20.449100 -8.397350 -1.243463 -2.806900 -3.752495 38.868928 -3.827640 2.582818 -7.069112 13.617303 19.568208 -39.404193 -8.292000 -0.345700 3.778100 -10.453200 -2.396922 0.198238 -11.912439 0.411989 0.447046 -5.387800 1.230212 -0.023917 5.596260 0.216196 1.534446 -23.231025 6.773255 1.418597 10.968600 0.711000 1.292900 15.371800 -8.146097 -3.216378 -0.254490 5.413386 6.181524 -43.603022 3.957130 -4.693364 -3.413218 -13.654073 -0.177945 -8.738115 24.963343 -3.807349 -4.311800 -7.125000 0.000000 0.000000 8.666700 23.059200 -4.631100 12.334884 4.785927 1.068760 -9.134368 -9.914301 -52.461310 -4.502682 3.626308 -2.575929 8.493634 4.516573 16.657254 -15.611431 -13.735773 8.092000 7.125000 0.000000 0.000000 6.046300 -51.474800 -0.967200 
9.729270 17.121261 32.931587 6.582838 -88.523097 15.266655 7.259297 2.491784 -3.429925 2.405067 -9.595561 -10.704051 -4.735858 0.685050 -0.051278 -5.831174 24.779432 29.628995 1.277700 -7.163500 -20.200800 -8.054455 -1.437654 -2.598712 -3.531844 38.892386 -3.609500 2.646601 -7.041095 13.538001 19.618267 -39.533848 -8.618156 -0.352100 3.812600 -10.550000 -2.059975 0.111459 -11.956056 0.418990 0.243446 -5.392004 1.230937 -0.173098 5.612319 0.316656 1.527560 -23.171108 6.735305 1.355512 10.976874 0.675300 1.269600 15.345800 -8.201629 -3.260381 -0.189137 5.421390 6.133529 -43.311864 3.895908 -4.695273 -3.267082 -9.387042 -1.033394 -8.674875 17.768016 -1.898874 -1.154300 -7.125000 0.000000 0.000000 0.475100 27.454200 -0.202600 12.385664 4.711340 1.028670 -9.105757 -9.948232 -52.315330 -4.501458 3.635252 -2.580339 8.432362 4.502511 16.553469 -15.537472 -13.628809 7.992300 7.125000 0.000000 0.000000 6.120500 -51.305400 -0.953700 
9.711884 17.116943 32.923886 -6.125908 -88.306255 27.861294 7.495259 2.638762 -3.440592 2.524401 -9.739000 -10.597396 -4.717300 0.695630 -0.055214 -5.981892 25.102755 29.649667 1.424700 -7.548000 -21.349300 -7.775503 -1.436865 -2.552639 -3.270357 38.761802 -3.396822 2.693580 -6.973909 13.482827 19.627019 -39.555508 -8.696423 -0.357800 3.843000 -10.635500 -1.779368 0.137396 -11.984871 0.414613 0.194706 -5.393423 1.204168 -0.210986 5.631032 0.255350 1.497545 -23.192015 6.784590 1.329247 11.040341 0.769300 1.253500 15.413600 -8.231975 -3.268222 -0.184041 5.389221 6.088420 -43.075369 3.902028 -4.721411 -3.286359 -10.021459 -0.906242 -8.792497 18.853520 -2.218678 -1.536900 -7.125000 0.000000 0.000000 1.754900 26.797100 -0.775600 12.388514 4.695560 1.005716 -8.988640 -10.031061 -52.199071 -4.514796 3.645263 -2.585993 8.363055 4.570865 16.333120 -15.452894 -13.679253 7.964400 7.125000 0.000000 0.000000 6.285700 -51.359500 -0.987900 
9.694032 17.112276 32.917235 -10.975601 -88.152252 32.611806 7.582109 2.747549 -3.415536 2.617476 -9.883447 -10.510731 -4.704491 0.709835 -0.064209 -6.082029 25.316405 29.626338 1.494500 -7.722400 -21.874200 -7.662262 -1.456467 -2.537252 -3.014423 38.741984 -3.123871 2.735752 -6.889417 13.438062 19.651381 -39.589392 -8.879466 -0.361600 3.863200 -10.692100 -1.670435 0.121534 -12.033081 0.417309 0.143668 -5.393607 1.196908 -0.234491 5.655557 0.203341 1.479255 -23.191171 6.816673 1.319243 11.093017 0.834600 1.243200 15.457300 -8.271822 -3.263283 -0.185309 5.344474 6.058076 -42.872623 3.892350 -4.741993 -3.281414 -9.736479 -0.952239 -8.847725 18.382670 -2.129454 -1.403900 -7.125000 0.000000 0.000000 1.190600 27.002500 -0.520300 12.397046 4.693861 0.994825 -8.915797 -10.082360 -52.168812 -4.523578 3.649863 -2.586867 8.315469 4.581300 16.233754 -15.407828 -13.660276 7.921300 7.125000 0.000000 0.000000 6.358400 -51.314500 -0.992400 
9.676762 17.107492 32.909534 -13.841249 -88.008161 35.376051 7.630838 2.837214 -3.390130 2.706985 -10.020437 -10.425359 -4.691794 0.724118 -0.071941 -6.177551 25.520864 29.600981 1.554300 -7.868400 -22.315000 -7.590178 -1.491246 -2.523824 -2.761099 38.735197 -2.851754 2.776600 -6.809395 13.397645 19.674959 -39.624467 -9.061322 -0.364700 3.879400 -10.737700 -1.614124 0.093046 -12.078356 0.421851 0.093085 -5.392487 1.197473 -0.257178 5.685442 0.152521 1.465100 -23.193102 6.845132 1.316448 11.140867 0.892500 1.236000 15.495500 -8.315363 -3.258910 -0.188560 5.291077 6.028537 -42.678315 3.877395 -4.759510 -3.272475 -9.360236 -1.006028 -8.872471 17.754291 -2.005676 -1.232800 -7.125000 0.000000 0.000000 0.436400 27.278000 -0.187900 12.407739 4.693116 0.985741 -8.851735 -10.128760 -52.174261 -4.530317 3.650369 -2.584878 8.267783 4.592502 16.151002 -15.354192 -13.647200 7.877400 7.125000 0.000000 0.000000 6.444400 -51.276900 -0.999900 
9.660077 17.102825 32.900666 -15.760574 -87.877217 37.194417 7.663920 2.914302 -3.366243 2.789942 -10.145212 -10.340524 -4.679661 0.736517 -0.076550 -6.265681 25.703225 29.568910 1.595700 -7.967600 -22.615600 -7.537529 -1.530981 -2.511326 -2.515497 38.747931 -2.587860 2.814379 -6.738735 13.364712 19.704044 -39.675009 -9.245328 -0.369200 3.902800 -10.803400 -1.589948 0.059548 -12.122980 0.429675 0.041803 -5.390422 1.206652 -0.280116 5.717623 0.094099 1.452349 -23.193751 6.875831 1.321509 11.184045 0.946300 1.232100 15.527400 -8.359656 -3.254103 -0.195774 5.222097 6.004928 -42.489351 3.864134 -4.774338 -3.270224 -9.322785 -1.006819 -8.884497 17.702959 -2.004970 -1.225600 -7.125000 0.000000 0.000000 0.368800 27.285800 -0.158700 12.417993 4.694358 0.979714 -8.794827 -10.168689 -52.200940 -4.535547 3.648972 -2.580588 8.225953 4.605677 16.084542 -15.304436 -13.648051 7.843200 7.125000 0.000000 0.000000 6.528800 -51.260000 -1.010400 
9.643975 17.098274 32.890864 -17.107000 -87.765162 38.443742 7.687749 2.981740 -3.344100 2.862020 -10.252973 -10.257698 -4.668616 0.747456 -0.077865 -6.348382 25.867222 29.529525 1.622600 -8.031400 -22.809400 -7.497003 -1.570859 -2.500862 -2.285876 38.771066 -2.342571 2.847412 -6.679313 13.340257 19.737827 -39.738891 -9.414614 -0.375500 3.935400 -10.895100 -1.593087 0.027082 -12.172005 0.438370 -0.003502 -5.387179 1.224222 -0.300819 5.751752 0.044429 1.437625 -23.185044 6.900918 1.321707 11.217241 0.985600 1.227200 15.543100 -8.407008 -3.252497 -0.203227 5.143422 5.978400 -42.332430 3.847615 -4.785701 -3.265908 -9.280072 -1.001140 -8.848499 17.642769 -1.998922 -1.214000 -7.125000 0.000000 0.000000 0.289900 27.301900 -0.124700 12.429655 4.695880 0.974802 -8.744015 -10.207666 -52.229518 -4.539482 3.647022 -2.575028 8.188376 4.623086 16.022850 -15.257904 -13.660810 7.817600 7.125000 0.000000 0.000000 6.612900 -51.262300 -1.023900 
9.628572 17.094073 32.880246 -18.080309 -87.676728 39.323949 7.704396 3.042289 -3.322526 2.919759 -10.339560 -10.177159 -4.658884 0.757903 -0.075771 -6.431719 26.025495 29.481046 1.640000 -8.072100 -22.933200 -7.463640 -1.609238 -2.493904 -2.082731 38.773823 -2.133661 2.872027 -6.633818 13.324012 19.779298 -39.820447 -9.522271 -0.386300 3.991200 -11.052000 -1.623554 -0.001061 -12.223696 0.446417 -0.038793 -5.383571 1.252955 -0.317415 5.783305 -0.001678 1.419484 -23.167016 6.922272 1.316209 11.243215 1.016100 1.220100 15.546800 -8.458095 -3.254837 -0.210565 5.055049 5.948840 -42.172168 3.826963 -4.794188 -3.259553 -9.267862 -0.993843 -8.803626 17.634628 -1.994421 -1.209800 -7.125000 0.000000 0.000000 0.274000 27.309200 -0.117800 12.442505 4.697902 0.970045 -8.691460 -10.248438 -52.256962 -4.545775 3.648115 -2.570805 8.167871 4.638383 15.979209 -15.246070 -13.687566 7.817500 7.125000 0.000000 0.000000 6.652700 -51.290200 -1.034700 
9.613637 17.090223 32.868811 -19.013813 -87.613067 40.168427 7.719271 3.101229 -3.299721 2.965649 -10.403131 -10.098777 -4.649772 0.768042 -0.069867 -6.515814 26.177802 29.422347 1.646400 -8.087200 -22.979200 -7.432522 -1.641482 -2.491780 -1.901379 38.762391 -1.957092 2.889301 -6.600874 13.315730 19.827122 -39.916511 -9.574367 -0.401900 4.070000 -11.273700 -1.671644 -0.021860 -12.278341 0.452616 -0.061315 -5.379239 1.285548 -0.328426 5.812767 -0.027400 1.398402 -23.140265 6.936554 1.297909 11.262518 1.029700 1.209900 15.539100 -8.510072 -3.262156 -0.216510 4.962507 5.913619 -42.056803 3.805116 -4.799696 -3.251634 -9.254661 -0.971059 -8.711965 17.624629 -2.000383 -1.214300 -7.125000 0.000000 0.000000 0.253800 27.296900 -0.109200 12.458574 4.701793 0.965340 -8.634171 -10.289746 -52.288485 -4.553655 3.651665 -2.567493 8.150185 4.648678 15.964576 -15.240048 -13.715877 7.820200 7.125000 0.000000 0.000000 6.686400 -51.320300 -1.044900 
9.599402 17.086722 32.857026 -19.924358 -87.570062 40.993975 7.731117 3.158658 -3.275987 3.001450 -10.446714 -10.024757 -4.641086 0.778961 -0.061904 -6.604657 26.337649 29.359194 1.656100 -8.109800 -23.047900 -7.402223 -1.668889 -2.493843 -1.744380 38.717688 -1.819231 2.898731 -6.579111 13.312595 19.880224 -40.023912 -9.550504 -0.422600 4.172100 -11.561500 -1.730061 -0.034900 -12.334982 0.458141 -0.073028 -5.375366 1.318801 -0.334549 5.841728 -0.062642 1.371971 -23.115872 6.956993 1.276743 11.282736 1.048800 1.198300 15.534400 -8.568275 -3.268553 -0.225099 4.852736 5.882473 -41.859962 3.784831 -4.814341 -3.247399 -9.246641 -0.967666 -8.707623 17.629149 -2.004183 -1.216700 -7.125000 0.000000 0.000000 0.250700 27.291300 -0.107800 12.474127 4.706721 0.960868 -8.569123 -10.331872 -52.315638 -4.565452 3.659920 -2.566756 8.154806 4.647899 15.975287 -15.286056 -13.748935 7.851800 7.125000 0.000000 0.000000 6.647200 -51.363300 -1.045800 
9.585750 17.083455 32.845241 -20.879507 -87.547203 41.869440 7.741483 3.215309 -3.250645 3.026831 -10.471773 -9.953975 -4.633006 0.789930 -0.051392 -6.696163 26.495271 29.283782 1.659600 -8.117900 -23.072800 -7.372158 -1.692022 -2.500340 -1.612248 38.642872 -1.715635 2.901393 -6.565144 13.309147 19.939294 -40.142500 -9.453961 -0.448400 4.296200 -11.911600 -1.792801 -0.040969 -12.394807 0.463055 -0.075335 -5.371532 1.345910 -0.335861 5.871646 -0.097440 1.342393 -23.093574 6.980276 1.251627 11.303818 1.066800 1.186000 15.531900 -8.630555 -3.274085 -0.236414 4.728906 5.856504 -41.621028 3.767480 -4.836156 -3.246817 -9.250346 -0.970376 -8.763917 17.658723 -2.020797 -1.230100 -7.125000 0.000000 0.000000 0.275800 27.264700 -0.118800 12.491522 4.714052 0.957718 -8.497690 -10.369376 -52.358527 -4.578990 3.670372 -2.566337 8.156714 4.627567 16.030762 -15.333369 -13.758042 7.869100 7.125000 0.000000 0.000000 6.598000 -51.367100 -1.038600 
